<?xml version="1.0" standalone="no"?>
<!DOCTYPE svg PUBLIC "-//W3C//DTD SVG 20010904//EN"
 "http://www.w3.org/TR/2001/REC-SVG-20010904/DTD/svg10.dtd">
<svg version="1.0" xmlns="http://www.w3.org/2000/svg"
 width="1024.000000pt" height="1024.000000pt" viewBox="0 0 1024.000000 1024.000000"
 preserveAspectRatio="xMidYMid meet">
<metadata>
Created by potrace 1.14, written by Peter Selinger 2001-2017
</metadata>
<g transform="translate(0.000000,1024.000000) scale(0.100000,-0.100000)"
fill="#000000" stroke="none">
<path d="M7015 9627 c-16 -12 -35 -26 -41 -32 -6 -5 -30 -26 -54 -45 -24 -19
-62 -51 -85 -70 -23 -19 -63 -54 -91 -76 -27 -23 -134 -113 -239 -200 -104
-87 -192 -161 -195 -164 -3 -3 -48 -41 -100 -85 -52 -44 -97 -82 -100 -85 -3
-3 -50 -43 -105 -89 -55 -46 -129 -110 -165 -141 -36 -32 -126 -111 -200 -175
-168 -147 -260 -227 -274 -240 -6 -5 -51 -46 -101 -90 -49 -44 -92 -82 -95
-85 -3 -3 -87 -79 -187 -169 -101 -90 -183 -169 -183 -176 0 -7 36 -50 79 -96
l80 -84 43 40 c31 29 658 648 882 871 312 311 1121 1148 1152 1193 19 26 17
26 -21 -2z"/>
<path d="M7999 9118 c-8 -7 -32 -26 -54 -43 -22 -16 -49 -37 -60 -46 -11 -9
-54 -44 -95 -78 -41 -34 -84 -69 -95 -79 -11 -10 -56 -47 -100 -82 -97 -79
-327 -270 -376 -313 -20 -18 -98 -84 -173 -147 l-136 -114 0 -107 c0 -58 3
-109 7 -112 6 -6 76 63 531 528 157 160 398 409 521 538 30 31 52 59 49 62 -3
3 -12 0 -19 -7z"/>
<path d="M3385 8942 c-3 -3 -5 -412 -5 -910 l0 -905 -68 -91 c-38 -50 -107
-143 -155 -207 -48 -64 -87 -126 -87 -137 0 -11 72 -168 161 -348 89 -181 208
-425 266 -543 137 -281 134 -286 -45 -63 -64 81 -126 158 -137 173 -55 73
-408 509 -413 509 -8 0 14 -105 43 -205 9 -33 21 -78 25 -100 5 -22 16 -67 25
-100 9 -33 20 -76 24 -95 5 -19 22 -88 40 -153 17 -65 31 -126 31 -136 0 -11
55 -70 133 -142 72 -68 168 -158 212 -199 44 -42 109 -102 145 -135 36 -32
108 -100 161 -150 53 -49 118 -110 145 -135 27 -24 112 -103 189 -175 77 -72
162 -151 190 -175 27 -25 90 -84 140 -131 49 -47 148 -139 220 -205 71 -65
155 -143 185 -171 84 -80 89 -72 31 44 -21 43 -69 141 -106 218 -124 261 -143
300 -225 470 -46 94 -106 220 -135 280 -29 61 -84 175 -123 255 -38 80 -102
213 -142 295 -95 200 -132 276 -238 495 -49 102 -118 244 -152 315 -34 72 -94
195 -132 275 -117 242 -124 261 -75 224 24 -18 199 -160 242 -195 18 -16 136
-112 370 -304 50 -40 149 -121 220 -180 72 -58 155 -127 186 -153 31 -26 99
-81 152 -122 109 -85 115 -96 128 -228 22 -237 28 -288 33 -302 6 -15 21 -146
36 -300 4 -47 16 -141 25 -210 16 -127 26 -209 44 -380 10 -100 27 -195 36
-211 7 -11 155 -12 172 -1 7 4 17 39 22 77 18 121 40 296 52 410 6 61 20 180
31 265 12 85 22 175 24 200 9 106 51 452 65 535 8 45 16 65 35 79 14 10 58 45
97 78 90 74 99 82 168 138 118 96 158 129 300 245 80 66 165 136 189 155 24
19 71 58 104 85 34 28 73 60 87 70 23 17 52 41 176 145 126 106 153 124 153
99 0 -5 -31 -74 -69 -152 -38 -78 -94 -196 -126 -262 -31 -66 -88 -183 -125
-260 -37 -77 -88 -183 -113 -235 -46 -97 -146 -305 -267 -555 -37 -77 -96
-198 -130 -270 -34 -71 -90 -188 -125 -260 -34 -71 -86 -179 -115 -240 -48
-101 -167 -346 -276 -571 -24 -50 -44 -98 -44 -108 0 -11 69 47 186 156 102
95 225 208 272 252 48 43 116 106 152 140 36 34 135 126 220 206 85 79 216
200 290 269 74 70 160 149 190 176 30 28 91 84 135 126 44 42 104 97 133 123
112 98 200 188 205 209 10 45 75 300 87 337 4 14 13 50 20 80 12 56 49 201 77
301 8 31 12 62 9 68 -4 6 -52 -46 -114 -123 -574 -720 -568 -713 -578 -703 -3
3 36 90 87 194 116 238 360 736 405 827 19 38 34 77 34 88 0 15 -68 120 -90
138 -3 3 -38 50 -78 105 -40 55 -88 120 -107 145 l-35 45 0 902 c0 496 -4 904
-9 907 -4 3 -68 -56 -141 -132 -74 -75 -267 -274 -429 -442 -163 -168 -379
-390 -482 -495 -102 -104 -249 -255 -325 -335 -76 -79 -151 -157 -166 -173
-58 -59 -28 -50 95 30 56 36 131 85 167 108 53 35 160 102 332 210 26 16 335
213 428 273 47 30 115 74 151 98 108 72 99 106 99 -374 0 -362 2 -421 16 -440
8 -12 20 -22 25 -22 5 0 39 -14 75 -30 46 -22 64 -36 62 -47 -2 -9 -34 -33
-73 -53 -101 -53 -208 -111 -220 -120 -5 -4 -44 -25 -85 -47 -41 -22 -102 -55
-135 -73 -33 -18 -89 -49 -125 -68 -36 -18 -69 -37 -75 -41 -5 -5 -48 -29 -95
-53 -137 -74 -200 -108 -282 -154 -43 -24 -79 -44 -82 -44 -2 0 -33 -16 -68
-36 -64 -38 -115 -65 -270 -148 l-88 -46 -147 81 c-196 108 -232 127 -338 184
-49 26 -94 51 -100 55 -5 4 -50 29 -100 55 -86 46 -163 88 -232 126 -18 10
-63 35 -100 55 -37 20 -88 48 -113 62 -25 13 -74 40 -110 60 -101 55 -171 93
-220 121 -25 14 -66 36 -92 49 -62 31 -56 42 53 95 l84 42 3 425 c1 233 6 428
11 433 8 8 118 -58 273 -164 31 -21 60 -39 63 -39 4 0 21 -11 39 -25 18 -14
36 -25 40 -25 4 0 12 -5 19 -10 7 -6 28 -20 47 -33 74 -48 552 -353 568 -362
9 -5 31 -20 49 -32 17 -13 35 -23 38 -23 4 0 27 -15 53 -32 86 -60 131 -77 90
-34 -13 13 -99 101 -192 197 -93 96 -241 248 -330 339 -89 91 -233 239 -320
330 -88 91 -241 248 -340 350 -100 102 -225 231 -278 286 -54 56 -100 99 -103
96z"/>
<path d="M8320 8089 c-14 -11 -34 -27 -45 -36 -34 -27 -577 -494 -625 -537
-60 -54 -91 -81 -235 -205 -130 -113 -240 -210 -318 -282 l-50 -45 44 -62 c24
-34 51 -62 60 -62 8 0 42 28 74 63 32 34 133 139 224 232 91 94 254 262 362
375 107 113 264 277 348 365 171 179 230 250 161 194z"/>
<path d="M2694 5673 c-98 -103 -216 -226 -261 -273 -45 -48 -92 -97 -103 -111
-12 -13 -50 -53 -84 -89 -54 -56 -215 -230 -341 -369 -49 -54 -43 -47 -140
-156 -44 -49 -88 -98 -97 -109 -17 -19 -23 -36 -14 -36 3 0 121 99 263 221
142 122 283 242 313 267 30 26 164 144 299 262 134 118 260 228 280 245 20 16
60 52 89 80 51 48 53 52 42 80 -17 44 -40 133 -40 155 0 11 -6 20 -13 20 -8 0
-94 -84 -193 -187z"/>
<path d="M3229 4762 c-334 -340 -507 -518 -739 -762 -102 -107 -222 -233 -266
-280 -115 -120 -139 -150 -121 -150 9 0 17 3 19 8 3 6 211 186 413 356 33 28
114 98 180 156 67 58 201 175 299 260 98 85 184 160 190 165 6 6 47 42 91 80
44 39 82 72 85 75 3 3 62 56 133 118 70 63 127 116 127 120 0 10 -124 121
-136 122 -6 0 -130 -121 -275 -268z"/>
<path d="M4140 4328 c-76 -71 -501 -492 -640 -635 -251 -256 -505 -553 -474
-553 6 0 104 69 114 80 3 3 43 35 90 70 47 36 90 70 96 75 7 6 92 73 189 150
98 77 221 176 274 220 54 44 114 94 135 110 21 17 48 38 60 49 11 10 41 35 66
55 25 20 47 38 50 41 3 3 48 41 100 85 52 44 113 96 135 117 l40 38 -80 75
c-44 41 -84 74 -90 74 -5 0 -35 -23 -65 -51z"/>
<path d="M1459 2943 c-72 -76 -238 -286 -233 -294 3 -5 259 -9 608 -9 347 0
625 -4 654 -10 78 -14 129 -51 143 -102 23 -86 -20 -145 -127 -176 -30 -9
-210 -12 -660 -12 -341 0 -625 -4 -632 -8 -9 -7 -12 -79 -10 -328 l3 -319 205
0 205 0 5 165 5 165 332 3 331 2 124 -137 c68 -76 137 -153 153 -170 l28 -33
274 0 c208 0 273 3 273 12 0 16 -261 271 -384 375 -14 13 -26 26 -26 30 0 5
25 16 56 26 122 38 221 131 264 244 28 75 30 216 4 283 -47 121 -150 210 -306
266 -125 44 -171 47 -728 51 l-535 4 -26 -28z"/>
<path d="M3332 2958 c-17 -17 -17 -289 0 -306 9 -9 170 -12 662 -12 l651 0
128 155 c70 85 125 160 122 165 -10 16 -1547 14 -1563 -2z"/>
<path d="M5333 2953 c-53 -55 -241 -297 -237 -305 3 -4 216 -8 473 -8 296 0
489 -4 527 -11 124 -23 237 -98 285 -190 32 -62 32 -176 1 -237 -40 -75 -114
-134 -212 -168 -49 -17 -86 -19 -360 -19 l-305 0 -5 230 -5 230 -210 0 -210 0
0 -395 0 -395 500 -3 c456 -2 510 0 605 17 150 27 173 34 274 85 199 101 320
251 362 448 39 183 -17 359 -161 504 -66 66 -96 88 -175 126 -52 25 -120 53
-150 61 -30 8 -73 21 -95 28 -28 8 -165 13 -462 16 -403 5 -422 4 -440 -14z"/>
<path d="M7015 2959 c-4 -6 -5 -11 -4 -13 15 -9 132 -110 308 -267 144 -128
259 -227 329 -281 34 -28 62 -57 62 -66 0 -10 -17 -29 -38 -44 -37 -26 -165
-134 -277 -232 -33 -29 -76 -66 -95 -82 -43 -35 -173 -147 -257 -221 -35 -30
-60 -59 -57 -64 3 -5 114 -9 247 -9 l242 0 55 48 c94 82 394 346 408 359 22
21 43 15 91 -29 37 -34 211 -192 255 -233 6 -6 45 -40 87 -78 l76 -67 281 0
c154 0 283 4 286 8 2 4 -34 42 -82 82 -48 41 -112 98 -142 125 -30 28 -89 80
-130 115 -41 36 -84 73 -95 83 -11 11 -82 71 -157 134 -151 127 -150 126 -80
174 20 13 40 29 46 34 6 6 43 37 82 70 147 124 220 187 249 214 17 15 83 72
148 126 64 54 117 102 117 106 0 4 -7 10 -16 13 -21 8 -475 6 -495 -2 -9 -4
-54 -41 -100 -83 -46 -42 -102 -91 -124 -110 -22 -19 -75 -68 -118 -109 -43
-41 -85 -79 -93 -83 -17 -10 -40 7 -144 106 -65 61 -201 186 -274 251 -12 10
-31 22 -44 27 -34 13 -539 12 -547 -2z"/>
<path d="M3325 2467 c-3 -6 -4 -185 -3 -397 l3 -385 661 -3 662 -2 126 152
c69 84 126 158 126 165 0 10 -122 13 -572 15 l-573 3 0 85 0 85 422 3 422 2
115 139 c64 76 116 142 116 145 0 3 -338 6 -750 6 -592 0 -752 -3 -755 -13z"/>
<path d="M3084 1456 c-17 -8 -42 -31 -55 -52 -22 -35 -24 -50 -24 -156 0 -127
7 -146 69 -192 26 -20 43 -21 262 -24 l234 -3 0 -65 0 -64 -204 0 -205 0 -3
28 c-3 27 -4 27 -78 27 l-75 0 2 -58 c2 -66 26 -107 76 -135 28 -15 64 -17
282 -17 278 0 287 2 333 69 20 29 22 45 22 150 0 139 -13 171 -84 205 -39 19
-60 21 -259 21 l-217 0 0 65 0 65 205 0 205 0 0 -30 0 -30 76 0 76 0 -4 65
c-4 60 -7 69 -41 103 l-37 37 -263 2 c-205 2 -269 0 -293 -11z"/>
<path d="M3820 1395 l0 -74 138 -3 137 -3 5 -285 5 -285 72 -3 73 -3 2 288 3
288 140 5 140 5 3 73 3 72 -361 0 -360 0 0 -75z"/>
<path d="M4610 1159 c0 -347 0 -349 70 -392 34 -21 45 -22 285 -22 281 0 293
3 337 72 23 37 23 43 26 346 l4 307 -81 0 -81 0 0 -285 0 -285 -205 0 -205 0
0 285 0 285 -75 0 -75 0 0 -311z"/>
<path d="M5452 1108 l3 -363 270 -3 c345 -4 387 4 429 86 13 26 16 70 16 284
0 235 -2 255 -20 286 -11 18 -34 41 -52 52 -31 19 -51 20 -341 20 l-307 0 2
-362z m563 2 l0 -205 -205 0 -205 0 -3 195 c-1 107 0 200 3 207 3 11 48 13
207 11 l203 -3 0 -205z"/>
<path d="M6300 1105 l0 -366 73 3 72 3 3 363 2 362 -75 0 -75 0 0 -365z"/>
<path d="M6593 1454 c-18 -9 -42 -31 -53 -49 -19 -30 -20 -50 -20 -295 0 -380
-15 -365 355 -365 240 0 251 1 285 22 68 42 70 50 70 347 l0 267 -39 42 -40
42 -263 3 c-226 2 -268 0 -295 -14z m487 -344 l0 -210 -205 0 -205 0 0 210 0
210 205 0 205 0 0 -210z"/>
<path d="M2105 1160 c-47 -8 -54 -8 170 -15 83 -3 212 -7 288 -10 131 -4 137
-4 137 15 0 19 -7 20 -277 19 -153 -1 -296 -5 -318 -9z"/>
<path d="M7540 1151 c0 -19 7 -20 198 -15 516 12 570 31 95 33 -284 1 -293 0
-293 -18z"/>
</g>
</svg>
